<svg width="64" height="64" viewBox="0 0 64 64" fill="none" xmlns="http://www.w3.org/2000/svg" role="img" aria-label="Activa">
  <defs>
    <linearGradient id="leaf" x1="14" y1="6" x2="52" y2="46" gradientUnits="userSpaceOnUse">
      <stop stop-color="#5BBFB0"/>
      <stop offset="1" stop-color="#2A7F8E"/>
    </linearGradient>
  </defs>
  <!-- Tronco -->
  <path d="M31 36c0 8-.4 14-1 20h4c-.6-6-1-12-1-20z" fill="#1B5563"/>
  <!-- Copa: árbol estilizado (crecimiento / bienestar) -->
  <path d="M32 4c-8.8 0-16 6.6-16 15 0 6.2 4 11.4 9.7 13.6.7.3 1.3-.1 1.3-.9 0-3.2 2.2-5.7 5-5.7s5 2.5 5 5.7c0 .8.6 1.2 1.3.9C44 30.4 48 25.2 48 19c0-8.4-7.2-15-16-15z" fill="url(#leaf)"/>
  <!-- Hoja interior (detalle) -->
  <path d="M32 12c-.1 6.4-.1 10.5 0 16.5M32 18c2.4-2.2 4.6-3 7-3.2M32 21c-2.4-2.2-4.6-3-7-3.2" stroke="#ffffff" stroke-width="1.6" stroke-linecap="round" opacity="0.85"/>
</svg>
